# xmcd
#
# Track frame offsets: 
#        182
#        15022
#        23410
#        37132
#        49897
#        64295
#        78000
#        92257
#        104902
#        115680
#        129710
#        141102
#        156412
#        169877
#        182420
#        196110
#        209067
#        222582
#        236375
#        249932
#        261882
#
# Disc length: 3688 seconds
#
# Revision: 2
# Processed by: cddbd v1.5.2PL0 Copyright (c) Steve Scherf et al.
# Submitted via: ExactAudioCopy v1.0b3
#
DISCID=1f0e6615
DTITLE=Teddy Wilson - The Chronogical 1939
DYEAR=1991
DGENRE=Jazz
TTITLE0=I'll Dream Tonight
TTITLE1=Jungle Love
TTITLE2=That Old Feeling
TTITLE3=My Blue Heaven
TTITLE4=Now It Can Be Told
TTITLE5=Laugh And Call It Love
TTITLE6=A-Tisket, A-Tasket
TTITLE7=Loch Lomond 
TTITLE8=Tiger Rag
TTITLE9=I'll See You In My Dreams
TTITLE10=Alice Blue Gown
TTITLE11=Everybody's Laughing
TTITLE12=Here It Is Tomorrow Again
TTITLE13=Say It With a Kiss
TTITLE14=April In My Heart
TTITLE15=I'll Never Fail You
TTITLE16=They Say
TTITLE17=You're So Desirable
TTITLE18=You're Gonna See A Lot Of Me
TTITLE19=Hello My Darling
TTITLE20=Let's Dream in the Moonlight
EXTD=YEAR: 1991
EXTT0=
EXTT1=
EXTT2=
EXTT3=
EXTT4=
EXTT5=
EXTT6=
EXTT7=
EXTT8=
EXTT9=
EXTT10=
EXTT11=
EXTT12=
EXTT13=
EXTT14=
EXTT15=
EXTT16=
EXTT17=
EXTT18=
EXTT19=
EXTT20=
PLAYORDER=
